<svg width="573" height="129" viewBox="0 0 573 129" fill="none" xmlns="http://www.w3.org/2000/svg">
  <path fill-rule="evenodd" clip-rule="evenodd" d="M81 35.4c1.3-1.8 4.3-3 6.5-2.9l103.4 8.2c2.2.2 3 1.7 1.5 3.5l-65 80.7a8.6 8.6 0 0 1-6.6 2.9l-103.4-8.2c-2.3-.1-3-1.7-1.5-3.4l65-80.8Zm5.5 3.8-60 74.5 95.3 7.5 60-74.5-95.3-7.5Z" fill="#23283D"/>
  <path fill-rule="evenodd" clip-rule="evenodd" d="M54 4.5a7 7 0 0 1 6-3.2l103.4 8.2c2.2.1 3.1 1.8 2 3.8l-51.6 90a7 7 0 0 1-6 3.1l-103.5-8c-2.2-.3-3.1-2-2-4L53.9 4.6Zm6 4.1-47.6 83 95.3 7.5 47.6-83L60 8.7Z" fill="#23283D"/>
  <path d="M215 108.8h23V83.7h12.8C270 83.7 283 72.3 283 54c0-18-12.6-30-31.5-30H215v84.8Zm23-43V42.4h8.1c8.1 0 13 4.3 13 11.6 0 7.2-4.9 11.8-13 11.8h-8ZM287.8 108.8h22.9V75.7c0-7.3 5-12.1 11.7-12.1 2.4 0 6.2.4 8.5 1.2V45.3c-1.8-.6-3.8-1-5.8-1-6.8 0-12.1 4-14.4 13h-.7v-12h-22.2v63.5ZM365.2 110c17.7 0 29-8.5 31.2-21.7h-21c-1.2 3.6-5 5.6-9.7 5.6-6.8 0-10.8-4.4-10.8-10.6v-1h41.5V77c0-20.2-12.5-32.6-31.7-32.6-19.7 0-32.3 13-32.3 32.8 0 20.6 12.4 32.8 32.8 32.8ZM355 69.7c.2-5.5 4.7-9.2 10.3-9.2 5.7 0 10 3.8 10.1 9.2H355ZM461.4 66c-.6-13.5-11.8-21.6-30.2-21.6-18.1 0-29.4 7.4-29.3 20.7 0 10 6.4 16.4 19.4 18.7l11.3 2c5 1 7.2 2.2 7.3 4.6-.1 2.7-3.1 4.2-7.3 4.2-5.2 0-8.8-2.2-9.5-6.3h-22.7c1.3 13 12.5 21.7 32 21.7 17.6 0 30.6-8.6 30.7-22.2-.1-9.4-6.4-14.9-19.4-17.2l-13-2.4c-4.8-.8-6.2-2.6-6-4.4-.2-2.7 3.1-4.2 7-4.2 4.6 0 8.3 2.4 8.7 6.3h21ZM507.3 45.2h-11V30h-22.8v15.2h-8.1v16.6h8.1v28.7c-.1 13.4 8.1 20.1 23.9 19.3 5.2-.3 9-1.4 11-2l-3.2-16.1c-1 .2-3.1.7-4.5.7-3 0-4.3-1.4-4.3-4V61.8h11V45.2ZM532.7 109.8c8.3 0 14.6-2.8 18.4-10h.5v9H573V65.3c0-11.8-11.1-21-29.3-21-19 0-28.4 10-29.2 21.6h21c.6-4 3.5-5.8 7.8-5.8 4 0 6.8 1.8 6.8 5.2v.1c0 3.7-4 4.9-14.7 5.7-13.1 1-23.4 6.2-23.4 20.2 0 12.7 8.6 18.5 20.7 18.5Zm7.5-14.4c-3.9 0-6.6-1.9-6.6-5.5 0-3.2 2.3-5.7 7.6-6.6 3.6-.6 6.7-1.3 9.1-2.3v5.3c0 5.8-5 9.1-10.1 9.1Z" fill="#23283D"/>
</svg>
